<svg xmlns="http://www.w3.org/2000/svg" width="420" height="470" viewBox="0 0 420 470" role="img" aria-label="Ma QR thanh toan Vietcombank demo">
  <rect width="420" height="470" fill="#ffffff" />
  <g transform="translate(175 18)">
    <path d="M35 0C22 0 10 7 5 19c-6 13-4 29 5 40l30 34 30-34c9-11 11-27 5-40C70 7 58 0 45 0h-10Z" fill="#2f8d46"/>
    <path d="M43 15 63 24 48 50 27 41Z" fill="#f7d02c"/>
  </g>
  <text x="210" y="70" text-anchor="middle" font-family="Arial, Helvetica, sans-serif" font-size="24" font-weight="700" fill="#126b42">Vietcombank</text>
  <text x="210" y="88" text-anchor="middle" font-family="Arial, Helvetica, sans-serif" font-size="10" fill="#7f8b84">Chung niem tin, vung tuong lai</text>
  <rect x="28" y="105" width="364" height="334" fill="#ffffff" stroke="#78ad27" stroke-width="2.5" />
  <g>
    <rect x="53" y="120" width="80" height="10" rx="1" ry="1" fill="#111111" />
    <rect x="173" y="120" width="20" height="10" rx="1" ry="1" fill="#111111" />
    <rect x="203" y="120" width="30" height="10" rx="1" ry="1" fill="#111111" />
    <rect x="243" y="120" width="10" height="10" rx="1" ry="1" fill="#111111" />
    <rect x="273" y="120" width="70" height="10" rx="1" ry="1" fill="#111111" />
    <rect x="53" y="130" width="10" height="10" rx="1" ry="1" fill="#111111" />
    <rect x="113" y="130" width="10" height="10" rx="1" ry="1" fill="#111111" />
    <rect x="133" y="130" width="20" height="10" rx="1" ry="1" fill="#111111" />
    <rect x="213" y="130" width="10" height="10" rx="1" ry="1" fill="#111111" />
    <rect x="253" y="130" width="10" height="10" rx="1" ry="1" fill="#111111" />
    <rect x="273" y="130" width="10" height="10" rx="1" ry="1" fill="#111111" />
    <rect x="333" y="130" width="10" height="10" rx="1" ry="1" fill="#111111" />
    <rect x="53" y="140" width="10" height="10" rx="1" ry="1" fill="#111111" />
    <rect x="73" y="140" width="30" height="10" rx="1" ry="1" fill="#111111" />
    <rect x="113" y="140" width="10" height="10" rx="1" ry="1" fill="#111111" />
    <rect x="143" y="140" width="10" height="10" rx="1" ry="1" fill="#111111" />
    <rect x="193" y="140" width="20" height="10" rx="1" ry="1" fill="#111111" />
    <rect x="233" y="140" width="10" height="10" rx="1" ry="1" fill="#111111" />
    <rect x="273" y="140" width="10" height="10" rx="1" ry="1" fill="#111111" />
    <rect x="293" y="140" width="30" height="10" rx="1" ry="1" fill="#111111" />
    <rect x="333" y="140" width="10" height="10" rx="1" ry="1" fill="#111111" />
    <rect x="53" y="150" width="10" height="10" rx="1" ry="1" fill="#111111" />
    <rect x="73" y="150" width="30" height="10" rx="1" ry="1" fill="#111111" />
    <rect x="113" y="150" width="10" height="10" rx="1" ry="1" fill="#111111" />
    <rect x="153" y="150" width="10" height="10" rx="1" ry="1" fill="#111111" />
    <rect x="173" y="150" width="70" height="10" rx="1" ry="1" fill="#111111" />
    <rect x="263" y="150" width="20" height="10" rx="1" ry="1" fill="#111111" />
    <rect x="293" y="150" width="30" height="10" rx="1" ry="1" fill="#111111" />
    <rect x="333" y="150" width="10" height="10" rx="1" ry="1" fill="#111111" />
    <rect x="53" y="160" width="10" height="10" rx="1" ry="1" fill="#111111" />
    <rect x="73" y="160" width="30" height="10" rx="1" ry="1" fill="#111111" />
    <rect x="113" y="160" width="20" height="10" rx="1" ry="1" fill="#111111" />
    <rect x="153" y="160" width="20" height="10" rx="1" ry="1" fill="#111111" />
    <rect x="183" y="160" width="10" height="10" rx="1" ry="1" fill="#111111" />
    <rect x="203" y="160" width="10" height="10" rx="1" ry="1" fill="#111111" />
    <rect x="243" y="160" width="10" height="10" rx="1" ry="1" fill="#111111" />
    <rect x="263" y="160" width="20" height="10" rx="1" ry="1" fill="#111111" />
    <rect x="293" y="160" width="30" height="10" rx="1" ry="1" fill="#111111" />
    <rect x="333" y="160" width="10" height="10" rx="1" ry="1" fill="#111111" />
    <rect x="53" y="170" width="10" height="10" rx="1" ry="1" fill="#111111" />
    <rect x="113" y="170" width="10" height="10" rx="1" ry="1" fill="#111111" />
    <rect x="153" y="170" width="10" height="10" rx="1" ry="1" fill="#111111" />
    <rect x="173" y="170" width="50" height="10" rx="1" ry="1" fill="#111111" />
    <rect x="263" y="170" width="20" height="10" rx="1" ry="1" fill="#111111" />
    <rect x="333" y="170" width="10" height="10" rx="1" ry="1" fill="#111111" />
    <rect x="53" y="180" width="90" height="10" rx="1" ry="1" fill="#111111" />
    <rect x="153" y="180" width="10" height="10" rx="1" ry="1" fill="#111111" />
    <rect x="173" y="180" width="10" height="10" rx="1" ry="1" fill="#111111" />
    <rect x="193" y="180" width="10" height="10" rx="1" ry="1" fill="#111111" />
    <rect x="213" y="180" width="10" height="10" rx="1" ry="1" fill="#111111" />
    <rect x="233" y="180" width="10" height="10" rx="1" ry="1" fill="#111111" />
    <rect x="253" y="180" width="10" height="10" rx="1" ry="1" fill="#111111" />
    <rect x="273" y="180" width="70" height="10" rx="1" ry="1" fill="#111111" />
    <rect x="53" y="190" width="30" height="10" rx="1" ry="1" fill="#111111" />
    <rect x="93" y="190" width="10" height="10" rx="1" ry="1" fill="#111111" />
    <rect x="123" y="190" width="20" height="10" rx="1" ry="1" fill="#111111" />
    <rect x="163" y="190" width="50" height="10" rx="1" ry="1" fill="#111111" />
    <rect x="223" y="190" width="10" height="10" rx="1" ry="1" fill="#111111" />
    <rect x="263" y="190" width="10" height="10" rx="1" ry="1" fill="#111111" />
    <rect x="293" y="190" width="20" height="10" rx="1" ry="1" fill="#111111" />
    <rect x="323" y="190" width="10" height="10" rx="1" ry="1" fill="#111111" />
    <rect x="73" y="200" width="10" height="10" rx="1" ry="1" fill="#111111" />
    <rect x="93" y="200" width="30" height="10" rx="1" ry="1" fill="#111111" />
    <rect x="133" y="200" width="10" height="10" rx="1" ry="1" fill="#111111" />
    <rect x="183" y="200" width="10" height="10" rx="1" ry="1" fill="#111111" />
    <rect x="213" y="200" width="30" height="10" rx="1" ry="1" fill="#111111" />
    <rect x="253" y="200" width="40" height="10" rx="1" ry="1" fill="#111111" />
    <rect x="63" y="210" width="10" height="10" rx="1" ry="1" fill="#111111" />
    <rect x="93" y="210" width="10" height="10" rx="1" ry="1" fill="#111111" />
    <rect x="123" y="210" width="30" height="10" rx="1" ry="1" fill="#111111" />
    <rect x="173" y="210" width="10" height="10" rx="1" ry="1" fill="#111111" />
    <rect x="203" y="210" width="10" height="10" rx="1" ry="1" fill="#111111" />
    <rect x="243" y="210" width="10" height="10" rx="1" ry="1" fill="#111111" />
    <rect x="263" y="210" width="10" height="10" rx="1" ry="1" fill="#111111" />
    <rect x="283" y="210" width="50" height="10" rx="1" ry="1" fill="#111111" />
    <rect x="63" y="220" width="40" height="10" rx="1" ry="1" fill="#111111" />
    <rect x="113" y="220" width="20" height="10" rx="1" ry="1" fill="#111111" />
    <rect x="153" y="220" width="20" height="10" rx="1" ry="1" fill="#111111" />
    <rect x="183" y="220" width="10" height="10" rx="1" ry="1" fill="#111111" />
    <rect x="213" y="220" width="10" height="10" rx="1" ry="1" fill="#111111" />
    <rect x="233" y="220" width="10" height="10" rx="1" ry="1" fill="#111111" />
    <rect x="283" y="220" width="30" height="10" rx="1" ry="1" fill="#111111" />
    <rect x="53" y="230" width="10" height="10" rx="1" ry="1" fill="#111111" />
    <rect x="93" y="230" width="10" height="10" rx="1" ry="1" fill="#111111" />
    <rect x="163" y="230" width="20" height="10" rx="1" ry="1" fill="#111111" />
    <rect x="193" y="230" width="20" height="10" rx="1" ry="1" fill="#111111" />
    <rect x="233" y="230" width="30" height="10" rx="1" ry="1" fill="#111111" />
    <rect x="283" y="230" width="10" height="10" rx="1" ry="1" fill="#111111" />
    <rect x="313" y="230" width="30" height="10" rx="1" ry="1" fill="#111111" />
    <rect x="53" y="240" width="30" height="10" rx="1" ry="1" fill="#111111" />
    <rect x="93" y="240" width="30" height="10" rx="1" ry="1" fill="#111111" />
    <rect x="133" y="240" width="10" height="10" rx="1" ry="1" fill="#111111" />
    <rect x="163" y="240" width="10" height="10" rx="1" ry="1" fill="#111111" />
    <rect x="183" y="240" width="40" height="10" rx="1" ry="1" fill="#111111" />
    <rect x="233" y="240" width="30" height="10" rx="1" ry="1" fill="#111111" />
    <rect x="283" y="240" width="10" height="10" rx="1" ry="1" fill="#111111" />
    <rect x="313" y="240" width="20" height="10" rx="1" ry="1" fill="#111111" />
    <rect x="53" y="250" width="30" height="10" rx="1" ry="1" fill="#111111" />
    <rect x="123" y="250" width="30" height="10" rx="1" ry="1" fill="#111111" />
    <rect x="163" y="250" width="50" height="10" rx="1" ry="1" fill="#111111" />
    <rect x="243" y="250" width="10" height="10" rx="1" ry="1" fill="#111111" />
    <rect x="323" y="250" width="10" height="10" rx="1" ry="1" fill="#111111" />
    <rect x="73" y="260" width="10" height="10" rx="1" ry="1" fill="#111111" />
    <rect x="103" y="260" width="20" height="10" rx="1" ry="1" fill="#111111" />
    <rect x="193" y="260" width="20" height="10" rx="1" ry="1" fill="#111111" />
    <rect x="243" y="260" width="10" height="10" rx="1" ry="1" fill="#111111" />
    <rect x="293" y="260" width="10" height="10" rx="1" ry="1" fill="#111111" />
    <rect x="313" y="260" width="10" height="10" rx="1" ry="1" fill="#111111" />
    <rect x="73" y="270" width="20" height="10" rx="1" ry="1" fill="#111111" />
    <rect x="103" y="270" width="10" height="10" rx="1" ry="1" fill="#111111" />
    <rect x="143" y="270" width="10" height="10" rx="1" ry="1" fill="#111111" />
    <rect x="193" y="270" width="10" height="10" rx="1" ry="1" fill="#111111" />
    <rect x="243" y="270" width="40" height="10" rx="1" ry="1" fill="#111111" />
    <rect x="293" y="270" width="10" height="10" rx="1" ry="1" fill="#111111" />
    <rect x="323" y="270" width="20" height="10" rx="1" ry="1" fill="#111111" />
    <rect x="63" y="280" width="30" height="10" rx="1" ry="1" fill="#111111" />
    <rect x="113" y="280" width="10" height="10" rx="1" ry="1" fill="#111111" />
    <rect x="143" y="280" width="10" height="10" rx="1" ry="1" fill="#111111" />
    <rect x="163" y="280" width="20" height="10" rx="1" ry="1" fill="#111111" />
    <rect x="203" y="280" width="30" height="10" rx="1" ry="1" fill="#111111" />
    <rect x="243" y="280" width="10" height="10" rx="1" ry="1" fill="#111111" />
    <rect x="303" y="280" width="10" height="10" rx="1" ry="1" fill="#111111" />
    <rect x="333" y="280" width="10" height="10" rx="1" ry="1" fill="#111111" />
    <rect x="73" y="290" width="20" height="10" rx="1" ry="1" fill="#111111" />
    <rect x="123" y="290" width="20" height="10" rx="1" ry="1" fill="#111111" />
    <rect x="153" y="290" width="20" height="10" rx="1" ry="1" fill="#111111" />
    <rect x="183" y="290" width="10" height="10" rx="1" ry="1" fill="#111111" />
    <rect x="223" y="290" width="10" height="10" rx="1" ry="1" fill="#111111" />
    <rect x="243" y="290" width="10" height="10" rx="1" ry="1" fill="#111111" />
    <rect x="273" y="290" width="50" height="10" rx="1" ry="1" fill="#111111" />
    <rect x="93" y="300" width="50" height="10" rx="1" ry="1" fill="#111111" />
    <rect x="163" y="300" width="10" height="10" rx="1" ry="1" fill="#111111" />
    <rect x="203" y="300" width="50" height="10" rx="1" ry="1" fill="#111111" />
    <rect x="273" y="300" width="20" height="10" rx="1" ry="1" fill="#111111" />
    <rect x="323" y="300" width="10" height="10" rx="1" ry="1" fill="#111111" />
    <rect x="83" y="310" width="20" height="10" rx="1" ry="1" fill="#111111" />
    <rect x="143" y="310" width="70" height="10" rx="1" ry="1" fill="#111111" />
    <rect x="223" y="310" width="10" height="10" rx="1" ry="1" fill="#111111" />
    <rect x="253" y="310" width="10" height="10" rx="1" ry="1" fill="#111111" />
    <rect x="293" y="310" width="20" height="10" rx="1" ry="1" fill="#111111" />
    <rect x="63" y="320" width="10" height="10" rx="1" ry="1" fill="#111111" />
    <rect x="113" y="320" width="10" height="10" rx="1" ry="1" fill="#111111" />
    <rect x="153" y="320" width="10" height="10" rx="1" ry="1" fill="#111111" />
    <rect x="183" y="320" width="20" height="10" rx="1" ry="1" fill="#111111" />
    <rect x="243" y="320" width="90" height="10" rx="1" ry="1" fill="#111111" />
    <rect x="53" y="330" width="20" height="10" rx="1" ry="1" fill="#111111" />
    <rect x="93" y="330" width="10" height="10" rx="1" ry="1" fill="#111111" />
    <rect x="113" y="330" width="10" height="10" rx="1" ry="1" fill="#111111" />
    <rect x="133" y="330" width="10" height="10" rx="1" ry="1" fill="#111111" />
    <rect x="163" y="330" width="10" height="10" rx="1" ry="1" fill="#111111" />
    <rect x="193" y="330" width="70" height="10" rx="1" ry="1" fill="#111111" />
    <rect x="293" y="330" width="20" height="10" rx="1" ry="1" fill="#111111" />
    <rect x="53" y="340" width="80" height="10" rx="1" ry="1" fill="#111111" />
    <rect x="143" y="340" width="20" height="10" rx="1" ry="1" fill="#111111" />
    <rect x="173" y="340" width="30" height="10" rx="1" ry="1" fill="#111111" />
    <rect x="243" y="340" width="20" height="10" rx="1" ry="1" fill="#111111" />
    <rect x="273" y="340" width="10" height="10" rx="1" ry="1" fill="#111111" />
    <rect x="293" y="340" width="20" height="10" rx="1" ry="1" fill="#111111" />
    <rect x="53" y="350" width="10" height="10" rx="1" ry="1" fill="#111111" />
    <rect x="113" y="350" width="70" height="10" rx="1" ry="1" fill="#111111" />
    <rect x="213" y="350" width="10" height="10" rx="1" ry="1" fill="#111111" />
    <rect x="233" y="350" width="30" height="10" rx="1" ry="1" fill="#111111" />
    <rect x="293" y="350" width="10" height="10" rx="1" ry="1" fill="#111111" />
    <rect x="313" y="350" width="10" height="10" rx="1" ry="1" fill="#111111" />
    <rect x="53" y="360" width="10" height="10" rx="1" ry="1" fill="#111111" />
    <rect x="73" y="360" width="30" height="10" rx="1" ry="1" fill="#111111" />
    <rect x="113" y="360" width="10" height="10" rx="1" ry="1" fill="#111111" />
    <rect x="153" y="360" width="10" height="10" rx="1" ry="1" fill="#111111" />
    <rect x="203" y="360" width="10" height="10" rx="1" ry="1" fill="#111111" />
    <rect x="253" y="360" width="60" height="10" rx="1" ry="1" fill="#111111" />
    <rect x="323" y="360" width="10" height="10" rx="1" ry="1" fill="#111111" />
    <rect x="53" y="370" width="10" height="10" rx="1" ry="1" fill="#111111" />
    <rect x="73" y="370" width="30" height="10" rx="1" ry="1" fill="#111111" />
    <rect x="113" y="370" width="20" height="10" rx="1" ry="1" fill="#111111" />
    <rect x="143" y="370" width="30" height="10" rx="1" ry="1" fill="#111111" />
    <rect x="183" y="370" width="10" height="10" rx="1" ry="1" fill="#111111" />
    <rect x="213" y="370" width="20" height="10" rx="1" ry="1" fill="#111111" />
    <rect x="253" y="370" width="20" height="10" rx="1" ry="1" fill="#111111" />
    <rect x="283" y="370" width="40" height="10" rx="1" ry="1" fill="#111111" />
    <rect x="53" y="380" width="10" height="10" rx="1" ry="1" fill="#111111" />
    <rect x="73" y="380" width="30" height="10" rx="1" ry="1" fill="#111111" />
    <rect x="113" y="380" width="20" height="10" rx="1" ry="1" fill="#111111" />
    <rect x="143" y="380" width="20" height="10" rx="1" ry="1" fill="#111111" />
    <rect x="183" y="380" width="20" height="10" rx="1" ry="1" fill="#111111" />
    <rect x="223" y="380" width="20" height="10" rx="1" ry="1" fill="#111111" />
    <rect x="253" y="380" width="10" height="10" rx="1" ry="1" fill="#111111" />
    <rect x="283" y="380" width="10" height="10" rx="1" ry="1" fill="#111111" />
    <rect x="313" y="380" width="30" height="10" rx="1" ry="1" fill="#111111" />
    <rect x="53" y="390" width="10" height="10" rx="1" ry="1" fill="#111111" />
    <rect x="113" y="390" width="10" height="10" rx="1" ry="1" fill="#111111" />
    <rect x="133" y="390" width="10" height="10" rx="1" ry="1" fill="#111111" />
    <rect x="173" y="390" width="10" height="10" rx="1" ry="1" fill="#111111" />
    <rect x="193" y="390" width="10" height="10" rx="1" ry="1" fill="#111111" />
    <rect x="213" y="390" width="10" height="10" rx="1" ry="1" fill="#111111" />
    <rect x="243" y="390" width="20" height="10" rx="1" ry="1" fill="#111111" />
    <rect x="293" y="390" width="20" height="10" rx="1" ry="1" fill="#111111" />
    <rect x="333" y="390" width="10" height="10" rx="1" ry="1" fill="#111111" />
    <rect x="53" y="400" width="80" height="10" rx="1" ry="1" fill="#111111" />
    <rect x="163" y="400" width="20" height="10" rx="1" ry="1" fill="#111111" />
    <rect x="213" y="400" width="10" height="10" rx="1" ry="1" fill="#111111" />
    <rect x="233" y="400" width="70" height="10" rx="1" ry="1" fill="#111111" />
    <rect x="333" y="400" width="10" height="10" rx="1" ry="1" fill="#111111" />
  </g>
</svg>
